<?xml version="1.0" standalone="no"?>
<!DOCTYPE svg PUBLIC "-//W3C//DTD SVG 20010904//EN"
 "http://www.w3.org/TR/2001/REC-SVG-20010904/DTD/svg10.dtd">
<svg version="1.0" xmlns="http://www.w3.org/2000/svg"
 width="33.000000pt" height="34.000000pt" viewBox="0 0 33.000000 34.000000"
 preserveAspectRatio="xMidYMid meet">

<g transform="translate(0.000000,34.000000) scale(0.100000,-0.100000)"
fill="#000000" stroke="none">
<path d="M130 319 c-44 -9 -90 -59 -90 -99 0 -16 -5 -32 -10 -35 -15 -9 -4
-39 39 -101 69 -102 126 -98 201 13 35 52 34 70 -1 23 -61 -80 -75 -93 -103
-92 -29 0 -86 45 -86 69 0 7 -9 21 -20 30 -21 18 -27 53 -10 53 6 0 10 17 10
38 0 58 36 87 105 87 63 0 105 -30 105 -76 0 -15 5 -31 10 -34 6 -4 10 7 10
24 0 66 -81 116 -160 100z"/>
<path d="M179 203 c-11 -15 -11 -16 1 -5 18 15 52 16 68 0 19 -19 14 -56 -8
-68 -29 -15 -57 -4 -69 28 -6 17 -10 21 -10 10 -1 -22 33 -58 54 -58 9 0 27
11 40 24 14 14 35 27 47 29 20 4 19 4 -4 6 -16 0 -28 5 -28 10 0 18 -31 41
-54 41 -13 0 -30 -8 -37 -17z"/>
<path d="M90 186 c0 -2 11 -6 25 -8 14 -3 25 -1 25 3 0 5 -11 9 -25 9 -14 0
-25 -2 -25 -4z"/>
<path d="M206 165 c4 -8 10 -12 15 -9 14 8 10 24 -6 24 -9 0 -12 -6 -9 -15z"/>
<path d="M103 153 c9 -2 23 -2 30 0 6 3 -1 5 -18 5 -16 0 -22 -2 -12 -5z"/>
<path d="M153 73 c9 -2 23 -2 30 0 6 3 -1 5 -18 5 -16 0 -22 -2 -12 -5z"/>
</g>
</svg>
